<?xml version="1.0" encoding="UTF-8" standalone="no"?>
<!DOCTYPE svg PUBLIC "-//W3C//DTD SVG 1.1//EN" "http://www.w3.org/Graphics/SVG/1.1/DTD/svg11.dtd">
<!-- Created with Vectornator (http://vectornator.io/) -->
<svg height="100%" stroke-miterlimit="10" style="fill-rule:nonzero;clip-rule:evenodd;stroke-linecap:round;stroke-linejoin:round;" version="1.1" viewBox="0 0 1000 1000" width="100%" xml:space="preserve" xmlns="http://www.w3.org/2000/svg" xmlns:vectornator="http://vectornator.io" xmlns:xlink="http://www.w3.org/1999/xlink">
<defs>
<linearGradient gradientTransform="matrix(1.14286 0 0 1.14286 -139.286 -71.4286)" gradientUnits="userSpaceOnUse" id="LinearGradient" x1="625" x2="975" y1="500" y2="500">
<stop offset="0" stop-color="#9f0000"/>
<stop offset="1" stop-color="#fe6148"/>
</linearGradient>
</defs>
<g id="Layer-1" vectornator:layerName="Layer 1">
<path d="M575 500C575 389.543 664.543 300 775 300C885.457 300 975 389.543 975 500C975 610.457 885.457 700 775 700C664.543 700 575 610.457 575 500Z" fill="url(#LinearGradient)" fill-rule="nonzero" opacity="1" stroke="#000000" stroke-linecap="butt" stroke-linejoin="miter" stroke-width="5"/>
<path d="M25 500C25 389.543 114.543 300 225 300C335.457 300 425 389.543 425 500C425 610.457 335.457 700 225 700C114.543 700 25 610.457 25 500Z" fill="#4bbe1b" fill-rule="nonzero" opacity="1" stroke="#000000" stroke-linecap="butt" stroke-linejoin="miter" stroke-width="5.95828"/>
<path d="M779.834 500C779.834 502.67 777.67 504.834 775 504.834C772.33 504.834 770.166 502.67 770.166 500C770.166 497.33 772.33 495.166 775 495.166C777.67 495.166 779.834 497.33 779.834 500Z" fill="#000000" fill-rule="nonzero" opacity="1" stroke="#000000" stroke-linecap="butt" stroke-linejoin="miter" stroke-width="0.00510995"/>
<g fill="#000000" opacity="1" stroke="none">
<path d="M638.028 483.466C638.028 479.888 639.32 477.104 641.905 475.116C644.49 473.128 648.004 472.134 652.448 472.134C654.811 472.134 657.068 472.426 659.22 473.011L661.606 473.713L661.606 481.502C658.12 480.402 655.36 479.853 653.325 479.853C651.571 479.853 650.191 480.151 649.185 480.747C648.179 481.344 647.677 482.168 647.677 483.221C647.677 485.092 649.536 486.683 653.255 487.992C656.974 489.302 660.068 490.94 662.535 492.904C665.003 494.869 666.822 497.103 667.991 499.606C669.161 502.109 669.745 505.208 669.745 508.903C669.745 514.587 668.102 519.189 664.816 522.71C661.529 526.23 657.185 527.99 651.782 527.99C646.332 527.99 641.952 526.288 638.642 522.885C635.332 519.482 633.677 514.88 633.677 509.079L633.677 508.693C633.677 504.997 634.724 501.676 636.818 498.729C638.911 495.781 641.548 493.899 644.729 493.08L644.624 492.869C640.227 490.6 638.028 487.466 638.028 483.466ZM643.817 508.447C643.817 512.026 644.531 514.821 645.957 516.833C647.384 518.844 649.326 519.85 651.782 519.85C654.191 519.85 656.097 518.844 657.501 516.833C658.904 514.821 659.606 511.792 659.606 507.746C659.606 505.149 658.869 502.775 657.395 500.623C655.922 498.471 654.05 497.15 651.782 496.659C649.349 496.659 647.413 497.659 645.975 499.658C644.536 501.658 643.817 504.588 643.817 508.447Z"/>
<path d="M695.463 509.5L675.71 509.5L675.71 501.325L695.463 501.325L695.463 509.5Z"/>
</g>
<path d="M231.315 488.09L248.203 488.09L248.203 500.3L231.315 500.3L231.315 519.387L218.451 519.387L218.451 500.3L201.516 500.3L201.516 488.09L218.451 488.09L218.451 469.799L231.315 469.799L231.315 488.09Z" fill="#000000" opacity="1" stroke="none"/>
<g fill="#000000" opacity="1" stroke="none">
<path d="M862.344 483.466C862.344 479.888 863.637 477.104 866.221 475.116C868.806 473.128 872.32 472.134 876.764 472.134C879.127 472.134 881.384 472.426 883.536 473.011L885.922 473.713L885.922 481.502C882.437 480.402 879.676 479.853 877.642 479.853C875.887 479.853 874.507 480.151 873.501 480.747C872.496 481.344 871.993 482.168 871.993 483.221C871.993 485.092 873.852 486.683 877.571 487.992C881.29 489.302 884.384 490.94 886.851 492.904C889.319 494.869 891.138 497.103 892.307 499.606C893.477 502.109 894.061 505.208 894.061 508.903C894.061 514.587 892.418 519.189 889.132 522.71C885.846 526.23 881.501 527.99 876.098 527.99C870.648 527.99 866.268 526.288 862.958 522.885C859.649 519.482 857.994 514.88 857.994 509.079L857.994 508.693C857.994 504.997 859.04 501.676 861.134 498.729C863.227 495.781 865.864 493.899 869.046 493.08L868.94 492.869C864.543 490.6 862.344 487.466 862.344 483.466ZM868.133 508.447C868.133 512.026 868.847 514.821 870.274 516.833C871.7 518.844 873.642 519.85 876.098 519.85C878.507 519.85 880.413 518.844 881.817 516.833C883.22 514.821 883.922 511.792 883.922 507.746C883.922 505.149 883.185 502.775 881.711 500.623C880.238 498.471 878.367 497.15 876.098 496.659C873.665 496.659 871.73 497.659 870.291 499.658C868.853 501.658 868.133 504.588 868.133 508.447Z"/>
<path d="M920.516 498.694L933.182 498.694L933.182 507.851L920.516 507.851L920.516 522.166L910.867 522.166L910.867 507.851L898.166 507.851L898.166 498.694L910.867 498.694L910.867 484.975L920.516 484.975L920.516 498.694Z"/>
</g>
</g>
</svg>
