<?xml version="1.0" encoding="UTF-8" standalone="no"?>
<!DOCTYPE svg PUBLIC "-//W3C//DTD SVG 1.1//EN" "http://www.w3.org/Graphics/SVG/1.1/DTD/svg11.dtd">
<!-- Created with Vectornator (http://vectornator.io/) -->
<svg height="100%" stroke-miterlimit="10" style="fill-rule:nonzero;clip-rule:evenodd;stroke-linecap:round;stroke-linejoin:round;" version="1.1" viewBox="0 0 1000 450" width="100%" xml:space="preserve" xmlns="http://www.w3.org/2000/svg" xmlns:vectornator="http://vectornator.io" xmlns:xlink="http://www.w3.org/1999/xlink">
<defs>
<linearGradient gradientTransform="matrix(1.14286 0 0 1.14286 -139.286 -346.429)" gradientUnits="userSpaceOnUse" id="LinearGradient" x1="625" x2="975" y1="500" y2="500">
<stop offset="0" stop-color="#9f0000"/>
<stop offset="1" stop-color="#fe6148"/>
</linearGradient>
<linearGradient gradientTransform="matrix(1 0 0 1 0 -275)" gradientUnits="userSpaceOnUse" id="LinearGradient_2" x1="25" x2="425" y1="500" y2="500">
<stop offset="0" stop-color="#fe6148"/>
<stop offset="1" stop-color="#9f0000"/>
</linearGradient>
</defs>
<g id="Layer-1" vectornator:layerName="Layer 1">
<g opacity="1">
<path d="M575 225C575 114.543 664.543 25 775 25C885.457 25 975 114.543 975 225C975 335.457 885.457 425 775 425C664.543 425 575 335.457 575 225Z" fill="url(#LinearGradient)" fill-rule="nonzero" opacity="1" stroke="#000000" stroke-linecap="butt" stroke-linejoin="miter" stroke-width="5"/>
<path d="M779.834 225C779.834 227.67 777.67 229.834 775 229.834C772.33 229.834 770.166 227.67 770.166 225C770.166 222.33 772.33 220.166 775 220.166C777.67 220.166 779.834 222.33 779.834 225Z" fill="#000000" fill-rule="nonzero" opacity="1" stroke="#000000" stroke-linecap="butt" stroke-linejoin="miter" stroke-width="0.00510995"/>
<g fill="#000000" opacity="1" stroke="none">
<path d="M638.028 208.466C638.028 204.888 639.32 202.104 641.905 200.116C644.49 198.128 648.004 197.134 652.448 197.134C654.811 197.134 657.068 197.426 659.22 198.011L661.606 198.713L661.606 206.502C658.12 205.402 655.36 204.853 653.325 204.853C651.571 204.853 650.191 205.151 649.185 205.747C648.179 206.344 647.677 207.168 647.677 208.221C647.677 210.092 649.536 211.683 653.255 212.992C656.974 214.302 660.068 215.94 662.535 217.904C665.003 219.869 666.822 222.103 667.991 224.606C669.161 227.109 669.745 230.208 669.745 233.903C669.745 239.587 668.102 244.189 664.816 247.71C661.529 251.23 657.185 252.99 651.782 252.99C646.332 252.99 641.952 251.288 638.642 247.885C635.332 244.482 633.677 239.88 633.677 234.079L633.677 233.693C633.677 229.997 634.724 226.676 636.818 223.729C638.911 220.781 641.548 218.899 644.729 218.08L644.624 217.869C640.227 215.6 638.028 212.466 638.028 208.466ZM643.817 233.447C643.817 237.026 644.531 239.821 645.957 241.833C647.384 243.844 649.326 244.85 651.782 244.85C654.191 244.85 656.097 243.844 657.501 241.833C658.904 239.821 659.606 236.792 659.606 232.746C659.606 230.149 658.869 227.775 657.395 225.623C655.922 223.471 654.05 222.15 651.782 221.659C649.349 221.659 647.413 222.659 645.975 224.658C644.536 226.658 643.817 229.588 643.817 233.447Z"/>
<path d="M695.463 234.5L675.71 234.5L675.71 226.325L695.463 226.325L695.463 234.5Z"/>
</g>
<g fill="#000000" opacity="1" stroke="none">
<path d="M862.344 208.466C862.344 204.888 863.637 202.104 866.221 200.116C868.806 198.128 872.32 197.134 876.764 197.134C879.127 197.134 881.384 197.426 883.536 198.011L885.922 198.713L885.922 206.502C882.437 205.402 879.676 204.853 877.642 204.853C875.887 204.853 874.507 205.151 873.501 205.747C872.496 206.344 871.993 207.168 871.993 208.221C871.993 210.092 873.852 211.683 877.571 212.992C881.29 214.302 884.384 215.94 886.851 217.904C889.319 219.869 891.138 222.103 892.307 224.606C893.477 227.109 894.061 230.208 894.061 233.903C894.061 239.587 892.418 244.189 889.132 247.71C885.846 251.23 881.501 252.99 876.098 252.99C870.648 252.99 866.268 251.288 862.958 247.885C859.649 244.482 857.994 239.88 857.994 234.079L857.994 233.693C857.994 229.997 859.04 226.676 861.134 223.729C863.227 220.781 865.864 218.899 869.046 218.08L868.94 217.869C864.543 215.6 862.344 212.466 862.344 208.466ZM868.133 233.447C868.133 237.026 868.847 239.821 870.274 241.833C871.7 243.844 873.642 244.85 876.098 244.85C878.507 244.85 880.413 243.844 881.817 241.833C883.22 239.821 883.922 236.792 883.922 232.746C883.922 230.149 883.185 227.775 881.711 225.623C880.238 223.471 878.367 222.15 876.098 221.659C873.665 221.659 871.73 222.659 870.291 224.658C868.853 226.658 868.133 229.588 868.133 233.447Z"/>
<path d="M920.516 223.694L933.182 223.694L933.182 232.851L920.516 232.851L920.516 247.166L910.867 247.166L910.867 232.851L898.166 232.851L898.166 223.694L910.867 223.694L910.867 209.975L920.516 209.975L920.516 223.694Z"/>
</g>
</g>
<g opacity="1">
<path d="M25 225C25 114.543 114.543 25 225 25C335.457 25 425 114.543 425 225C425 335.457 335.457 425 225 425C114.543 425 25 335.457 25 225Z" fill="url(#LinearGradient_2)" fill-rule="nonzero" opacity="1" stroke="#000000" stroke-linecap="butt" stroke-linejoin="miter" stroke-width="5"/>
<path d="M229.834 225C229.834 227.67 227.67 229.834 225 229.834C222.33 229.834 220.166 227.67 220.166 225C220.166 222.33 222.33 220.166 225 220.166C227.67 220.166 229.834 222.33 229.834 225Z" fill="#000000" fill-rule="nonzero" opacity="1" stroke="#000000" stroke-linecap="butt" stroke-linejoin="miter" stroke-width="0.00510995"/>
<g fill="#000000" opacity="1" stroke="none">
<path d="M82.3442 208.466C82.3442 204.888 83.6366 202.104 86.2212 200.116C88.8058 198.128 92.3202 197.134 96.7644 197.134C99.1268 197.134 101.384 197.426 103.536 198.011L105.922 198.713L105.922 206.502C102.437 205.402 99.6765 204.853 97.6415 204.853C95.8872 204.853 94.5072 205.151 93.5014 205.747C92.4956 206.344 91.9927 207.168 91.9927 208.221C91.9927 210.092 93.8523 211.683 97.5713 212.992C101.29 214.302 104.384 215.94 106.851 217.904C109.319 219.869 111.138 222.103 112.307 224.606C113.477 227.109 114.061 230.208 114.061 233.903C114.061 239.587 112.418 244.189 109.132 247.71C105.846 251.23 101.501 252.99 96.0977 252.99C90.6478 252.99 86.268 251.288 82.9582 247.885C79.6485 244.482 77.9937 239.88 77.9937 234.079L77.9937 233.693C77.9937 229.997 79.0404 226.676 81.1338 223.729C83.2272 220.781 85.8645 218.899 89.0456 218.08L88.9403 217.869C84.5429 215.6 82.3442 212.466 82.3442 208.466ZM88.1333 233.447C88.1333 237.026 88.8468 239.821 90.2736 241.833C91.7004 243.844 93.6418 244.85 96.0977 244.85C98.5069 244.85 100.413 243.844 101.817 241.833C103.22 239.821 103.922 236.792 103.922 232.746C103.922 230.149 103.185 227.775 101.711 225.623C100.238 223.471 98.3666 222.15 96.0977 221.659C93.6652 221.659 91.7296 222.659 90.2911 224.658C88.8526 226.658 88.1333 229.588 88.1333 233.447Z"/>
<path d="M140.516 223.694L153.182 223.694L153.182 232.851L140.516 232.851L140.516 247.166L130.867 247.166L130.867 232.851L118.166 232.851L118.166 223.694L130.867 223.694L130.867 209.975L140.516 209.975L140.516 223.694Z"/>
</g>
<g fill="#000000" opacity="1" stroke="none">
<path d="M318.028 208.466C318.028 204.888 319.32 202.104 321.905 200.116C324.49 198.128 328.004 197.134 332.448 197.134C334.811 197.134 337.068 197.426 339.22 198.011L341.606 198.713L341.606 206.502C338.12 205.402 335.36 204.853 333.325 204.853C331.571 204.853 330.191 205.151 329.185 205.747C328.179 206.344 327.677 207.168 327.677 208.221C327.677 210.092 329.536 211.683 333.255 212.992C336.974 214.302 340.068 215.94 342.535 217.904C345.003 219.869 346.822 222.103 347.991 224.606C349.161 227.109 349.745 230.208 349.745 233.903C349.745 239.587 348.102 244.189 344.816 247.71C341.529 251.23 337.185 252.99 331.782 252.99C326.332 252.99 321.952 251.288 318.642 247.885C315.332 244.482 313.677 239.88 313.677 234.079L313.677 233.693C313.677 229.997 314.724 226.676 316.818 223.729C318.911 220.781 321.548 218.899 324.729 218.08L324.624 217.869C320.227 215.6 318.028 212.466 318.028 208.466ZM323.817 233.447C323.817 237.026 324.531 239.821 325.957 241.833C327.384 243.844 329.326 244.85 331.782 244.85C334.191 244.85 336.097 243.844 337.501 241.833C338.904 239.821 339.606 236.792 339.606 232.746C339.606 230.149 338.869 227.775 337.395 225.623C335.922 223.471 334.05 222.15 331.782 221.659C329.349 221.659 327.413 222.659 325.975 224.658C324.536 226.658 323.817 229.588 323.817 233.447Z"/>
<path d="M375.463 234.5L355.71 234.5L355.71 226.325L375.463 226.325L375.463 234.5Z"/>
</g>
</g>
<path d="M425 225L575 225" fill="none" opacity="1" stroke="#000000" stroke-dasharray="30.0" stroke-linecap="round" stroke-linejoin="miter" stroke-width="5"/>
</g>
</svg>
