<?xml version="1.0" encoding="UTF-8" standalone="no"?>
<!DOCTYPE svg PUBLIC "-//W3C//DTD SVG 1.1//EN" "http://www.w3.org/Graphics/SVG/1.1/DTD/svg11.dtd">
<!-- Created with Vectornator (http://vectornator.io/) -->
<svg height="100%" stroke-miterlimit="10" style="fill-rule:nonzero;clip-rule:evenodd;stroke-linecap:round;stroke-linejoin:round;" version="1.1" viewBox="0 0 1000 400" width="100%" xml:space="preserve" xmlns="http://www.w3.org/2000/svg" xmlns:vectornator="http://vectornator.io" xmlns:xlink="http://www.w3.org/1999/xlink">
<defs>
<linearGradient gradientTransform="matrix(1.19166 0 0 1.19166 -95.8279 -392.08)" gradientUnits="userSpaceOnUse" id="LinearGradient" x1="887.406" x2="501.936" y1="496.098" y2="501.249">
<stop offset="0" stop-color="#fe6148"/>
<stop offset="1" stop-color="#9f0000"/>
</linearGradient>
</defs>
<g id="Layer-1" vectornator:layerName="Layer 1">
<path d="M25 203.748C25 107.099 103.35 28.7484 200 28.7484C296.65 28.7484 375 107.099 375 203.748C375 300.398 296.65 378.748 200 378.748C103.35 378.748 25 300.398 25 203.748Z" fill="#4bbe1b" fill-rule="nonzero" opacity="1" stroke="#000000" stroke-linecap="butt" stroke-linejoin="miter" stroke-width="5.95828"/>
<path d="M500 203.748C500 84.5828 678.748 25 797.914 25C896.634 25 976.662 105.028 976.662 203.748C976.662 302.468 896.634 382.497 797.914 382.497C678.748 382.497 500 322.914 500 203.748Z" fill="url(#LinearGradient)" fill-rule="nonzero" opacity="1" stroke="#000000" stroke-linecap="butt" stroke-linejoin="miter" stroke-width="5.95828"/>
<path d="M801.779 203.748C801.779 205.883 800.049 207.614 797.914 207.614C795.779 207.614 794.049 205.883 794.049 203.748C794.049 201.614 795.779 199.883 797.914 199.883C800.049 199.883 801.779 201.614 801.779 203.748Z" fill="#000000" fill-rule="nonzero" opacity="1" stroke="#000000" stroke-linecap="butt" stroke-linejoin="miter" stroke-width="0.0264255"/>
<g fill="#000000" opacity="1" stroke="none">
<path d="M561.902 188.456C561.902 184.877 563.195 182.094 565.779 180.106C568.364 178.118 571.878 177.123 576.322 177.123C578.685 177.123 580.942 177.416 583.094 178.001L585.48 178.702L585.48 186.491C581.995 185.392 579.234 184.842 577.2 184.842C575.445 184.842 574.065 185.14 573.059 185.737C572.054 186.333 571.551 187.158 571.551 188.21C571.551 190.082 573.41 191.672 577.129 192.982C580.848 194.292 583.942 195.929 586.409 197.894C588.877 199.859 590.696 202.093 591.865 204.595C593.035 207.098 593.62 210.197 593.62 213.893C593.62 219.577 591.976 224.179 588.69 227.699C585.404 231.219 581.059 232.979 575.656 232.979C570.206 232.979 565.826 231.278 562.516 227.875C559.207 224.471 557.552 219.869 557.552 214.068L557.552 213.682C557.552 209.987 558.598 206.665 560.692 203.718C562.785 200.771 565.423 198.888 568.604 198.069L568.498 197.859C564.101 195.59 561.902 192.456 561.902 188.456ZM567.691 213.437C567.691 217.016 568.405 219.811 569.832 221.822C571.258 223.834 573.2 224.84 575.656 224.84C578.065 224.84 579.971 223.834 581.375 221.822C582.778 219.811 583.48 216.782 583.48 212.735C583.48 210.139 582.743 207.765 581.269 205.613C579.796 203.461 577.925 202.139 575.656 201.648C573.223 201.648 571.288 202.648 569.849 204.648C568.411 206.648 567.691 209.577 567.691 213.437Z"/>
<path d="M619.337 214.489L599.584 214.489L599.584 206.315L619.337 206.315L619.337 214.489Z"/>
</g>
<path d="M208.401 198.498L225.289 198.498L225.289 210.707L208.401 210.707L208.401 229.794L195.537 229.794L195.537 210.707L178.602 210.707L178.602 198.498L195.537 198.498L195.537 180.206L208.401 180.206L208.401 198.498Z" fill="#000000" opacity="1" stroke="none"/>
<g fill="#000000" opacity="1" stroke="none">
<path d="M877.966 187.264C877.966 183.686 879.258 180.902 881.842 178.914C884.427 176.926 887.941 175.932 892.386 175.932C894.748 175.932 897.005 176.224 899.157 176.809L901.543 177.511L901.543 185.3C898.058 184.2 895.298 183.651 893.263 183.651C891.509 183.651 890.128 183.949 889.123 184.545C888.117 185.142 887.614 185.966 887.614 187.019C887.614 188.89 889.474 190.481 893.193 191.79C896.912 193.1 900.005 194.738 902.473 196.702C904.94 198.667 906.759 200.901 907.928 203.404C909.098 205.906 909.683 209.006 909.683 212.701C909.683 218.385 908.04 222.987 904.753 226.507C901.467 230.028 897.122 231.788 891.719 231.788C886.269 231.788 881.889 230.086 878.58 226.683C875.27 223.28 873.615 218.678 873.615 212.877L873.615 212.491C873.615 208.795 874.662 205.474 876.755 202.527C878.849 199.579 881.486 197.696 884.667 196.878L884.562 196.667C880.164 194.398 877.966 191.264 877.966 187.264ZM883.755 212.245C883.755 215.824 884.468 218.619 885.895 220.631C887.322 222.642 889.263 223.648 891.719 223.648C894.128 223.648 896.035 222.642 897.438 220.631C898.841 218.619 899.543 215.59 899.543 211.543C899.543 208.947 898.806 206.573 897.333 204.421C895.859 202.269 893.988 200.948 891.719 200.456C889.286 200.456 887.351 201.456 885.912 203.456C884.474 205.456 883.755 208.386 883.755 212.245Z"/>
<path d="M936.137 202.491L948.803 202.491L948.803 211.649L936.137 211.649L936.137 225.964L926.489 225.964L926.489 211.649L913.788 211.649L913.788 202.491L926.489 202.491L926.489 188.773L936.137 188.773L936.137 202.491Z"/>
</g>
<path d="M375 203.748L500 203.748" fill="none" opacity="1" stroke="#000000" stroke-dasharray="25.0" stroke-linecap="butt" stroke-linejoin="miter" stroke-width="5"/>
</g>
</svg>
