<?xml version="1.0" encoding="UTF-8" standalone="no"?>
<!DOCTYPE svg PUBLIC "-//W3C//DTD SVG 1.1//EN" "http://www.w3.org/Graphics/SVG/1.1/DTD/svg11.dtd">
<!-- Created with Vectornator (http://vectornator.io/) -->
<svg height="100%" stroke-miterlimit="10" style="fill-rule:nonzero;clip-rule:evenodd;stroke-linecap:round;stroke-linejoin:round;" version="1.1" viewBox="0 0 1000 1000" width="100%" xml:space="preserve" xmlns="http://www.w3.org/2000/svg" xmlns:vectornator="http://vectornator.io" xmlns:xlink="http://www.w3.org/1999/xlink">
<defs>
<linearGradient gradientTransform="matrix(1.19166 0 0 1.19166 -95.8279 -95.8279)" gradientUnits="userSpaceOnUse" id="LinearGradient" x1="887.406" x2="501.936" y1="496.098" y2="501.249">
<stop offset="0" stop-color="#fe6148"/>
<stop offset="1" stop-color="#9f0000"/>
</linearGradient>
</defs>
<g id="Layer-1" vectornator:layerName="Layer 1">
<path d="M23.3377 500C23.3377 401.28 103.366 321.252 202.086 321.252C300.806 321.252 380.834 401.28 380.834 500C380.834 598.72 300.806 678.748 202.086 678.748C103.366 678.748 23.3377 598.72 23.3377 500Z" fill="#4bbe1b" fill-rule="nonzero" opacity="1" stroke="#000000" stroke-linecap="butt" stroke-linejoin="miter" stroke-width="5.95828"/>
<path d="M500 500C500 380.834 678.748 321.252 797.914 321.252C896.634 321.252 976.662 401.28 976.662 500C976.662 598.72 896.634 678.748 797.914 678.748C678.748 678.748 500 619.166 500 500Z" fill="url(#LinearGradient)" fill-rule="nonzero" opacity="1" stroke="#000000" stroke-linecap="butt" stroke-linejoin="miter" stroke-width="5.95828"/>
<path d="M801.779 500C801.779 502.135 800.049 503.865 797.914 503.865C795.779 503.865 794.049 502.135 794.049 500C794.049 497.865 795.779 496.135 797.914 496.135C800.049 496.135 801.779 497.865 801.779 500Z" fill="#000000" fill-rule="nonzero" opacity="1" stroke="#000000" stroke-linecap="butt" stroke-linejoin="miter" stroke-width="0.0264255"/>
<g fill="#000000" opacity="1" stroke="none">
<path d="M561.902 484.708C561.902 481.129 563.195 478.345 565.779 476.357C568.364 474.369 571.878 473.375 576.322 473.375C578.685 473.375 580.942 473.667 583.094 474.252L585.48 474.954L585.48 482.743C581.995 481.644 579.234 481.094 577.2 481.094C575.445 481.094 574.065 481.392 573.059 481.989C572.054 482.585 571.551 483.409 571.551 484.462C571.551 486.333 573.41 487.924 577.129 489.234C580.848 490.544 583.942 492.181 586.409 494.146C588.877 496.11 590.696 498.344 591.865 500.847C593.035 503.35 593.62 506.449 593.62 510.145C593.62 515.828 591.976 520.43 588.69 523.951C585.404 527.471 581.059 529.231 575.656 529.231C570.206 529.231 565.826 527.529 562.516 524.126C559.207 520.723 557.552 516.121 557.552 510.32L557.552 509.934C557.552 506.238 558.598 502.917 560.692 499.97C562.785 497.023 565.423 495.14 568.604 494.321L568.498 494.111C564.101 491.842 561.902 488.707 561.902 484.708ZM567.691 509.688C567.691 513.267 568.405 516.062 569.832 518.074C571.258 520.085 573.2 521.091 575.656 521.091C578.065 521.091 579.971 520.085 581.375 518.074C582.778 516.062 583.48 513.033 583.48 508.987C583.48 506.39 582.743 504.016 581.269 501.864C579.796 499.713 577.925 498.391 575.656 497.9C573.223 497.9 571.288 498.9 569.849 500.9C568.411 502.899 567.691 505.829 567.691 509.688Z"/>
<path d="M619.337 510.741L599.584 510.741L599.584 502.566L619.337 502.566L619.337 510.741Z"/>
</g>
<path d="M208.401 494.749L225.289 494.749L225.289 506.959L208.401 506.959L208.401 526.045L195.537 526.045L195.537 506.959L178.602 506.959L178.602 494.749L195.537 494.749L195.537 476.458L208.401 476.458L208.401 494.749Z" fill="#000000" opacity="1" stroke="none"/>
<g fill="#000000" opacity="1" stroke="none">
<path d="M877.966 483.516C877.966 479.937 879.258 477.154 881.842 475.166C884.427 473.177 887.941 472.183 892.386 472.183C894.748 472.183 897.005 472.476 899.157 473.061L901.543 473.762L901.543 481.551C898.058 480.452 895.298 479.902 893.263 479.902C891.509 479.902 890.128 480.2 889.123 480.797C888.117 481.393 887.614 482.218 887.614 483.27C887.614 485.142 889.474 486.732 893.193 488.042C896.912 489.352 900.005 490.989 902.473 492.954C904.94 494.919 906.759 497.153 907.928 499.655C909.098 502.158 909.683 505.257 909.683 508.953C909.683 514.637 908.04 519.239 904.753 522.759C901.467 526.279 897.122 528.039 891.719 528.039C886.269 528.039 881.889 526.338 878.58 522.934C875.27 519.531 873.615 514.929 873.615 509.128L873.615 508.742C873.615 505.047 874.662 501.725 876.755 498.778C878.849 495.831 881.486 493.948 884.667 493.129L884.562 492.919C880.164 490.65 877.966 487.516 877.966 483.516ZM883.755 508.497C883.755 512.076 884.468 514.871 885.895 516.882C887.322 518.894 889.263 519.9 891.719 519.9C894.128 519.9 896.035 518.894 897.438 516.882C898.841 514.871 899.543 511.842 899.543 507.795C899.543 505.199 898.806 502.825 897.333 500.673C895.859 498.521 893.988 497.199 891.719 496.708C889.286 496.708 887.351 497.708 885.912 499.708C884.474 501.708 883.755 504.637 883.755 508.497Z"/>
<path d="M936.137 498.743L948.803 498.743L948.803 507.9L936.137 507.9L936.137 522.215L926.489 522.215L926.489 507.9L913.788 507.9L913.788 498.743L926.489 498.743L926.489 485.025L936.137 485.025L936.137 498.743Z"/>
</g>
</g>
</svg>
